<svg width="30" height="30" viewBox="0 0 30 30" fill="none" xmlns="http://www.w3.org/2000/svg">
<path d="M15.0004 2.72785C7.80378 2.72785 1.96973 8.5619 1.96973 15.7586C1.96973 22.9563 7.80378 28.7893 15.0004 28.7893C22.1971 28.7893 28.0311 22.9563 28.0311 15.7586C28.0311 8.5619 22.1966 2.72785 15.0004 2.72785ZM15.7476 8.0121C16.3387 7.31836 17.3383 6.80401 18.1627 6.77068C18.268 7.73164 17.8807 8.69525 17.3092 9.38846C16.7356 10.0811 15.7974 10.6204 14.8761 10.5489C14.7523 9.60806 15.2163 8.62593 15.7476 8.0121ZM20.4397 21.1349C19.7555 22.1345 19.0464 23.1304 17.9294 23.1505C16.8308 23.1711 16.4773 22.4996 15.2227 22.4996C13.967 22.4996 13.5743 23.1309 12.5345 23.1716C11.4566 23.2119 10.6353 22.0937 9.94584 21.0973C8.53562 19.0611 7.45982 15.3426 8.90656 12.8323C9.62305 11.5845 10.9068 10.7971 12.299 10.7754C13.3595 10.7558 14.3591 11.4898 15.0057 11.4898C15.654 11.4898 16.8689 10.6082 18.1469 10.7384C18.6813 10.7601 20.182 10.9532 21.1462 12.3634C21.0689 12.4121 19.3539 13.4096 19.3745 15.4866C19.3973 17.9678 21.551 18.7917 21.5758 18.8044C21.5557 18.8605 21.2303 19.9797 20.4397 21.1349Z" fill="#26BB8B"/>
</svg>
