<svg width="18" height="18" viewBox="0 0 18 18" fill="none" xmlns="http://www.w3.org/2000/svg">
<path d="M4.5 15.75H2.25C2.05109 15.75 1.86032 15.671 1.71967 15.5303C1.57902 15.3897 1.5 15.1989 1.5 15V9C1.5 8.80109 1.57902 8.61032 1.71967 8.46967C1.86032 8.32902 2.05109 8.25 2.25 8.25H4.5C4.69891 8.25 4.88968 8.32902 5.03033 8.46967C5.17098 8.61032 5.25 8.80109 5.25 9V15C5.25 15.1989 5.17098 15.3897 5.03033 15.5303C4.88968 15.671 4.69891 15.75 4.5 15.75ZM9.75 15.75H7.5C7.30109 15.75 7.11032 15.671 6.96967 15.5303C6.82902 15.3897 6.75 15.1989 6.75 15V2.25C6.75 2.05109 6.82902 1.86032 6.96967 1.71967C7.11032 1.57902 7.30109 1.5 7.5 1.5H9.75C9.94891 1.5 10.1397 1.57902 10.2803 1.71967C10.421 1.86032 10.5 2.05109 10.5 2.25V15C10.5 15.1989 10.421 15.3897 10.2803 15.5303C10.1397 15.671 9.94891 15.75 9.75 15.75ZM15 15.75H12.75C12.5511 15.75 12.3603 15.671 12.2197 15.5303C12.079 15.3897 12 15.1989 12 15V6.75C12 6.55109 12.079 6.36032 12.2197 6.21967C12.3603 6.07902 12.5511 6 12.75 6H15C15.1989 6 15.3897 6.07902 15.5303 6.21967C15.671 6.36032 15.75 6.55109 15.75 6.75V15C15.75 15.1989 15.671 15.3897 15.5303 15.5303C15.3897 15.671 15.1989 15.75 15 15.75Z" fill="white"/>
</svg>
