<svg width="20" height="21" viewBox="0 0 20 21" fill="none" xmlns="http://www.w3.org/2000/svg">
<path d="M18.3337 2.41915H15.625V1.17048C15.625 0.825221 15.3456 0.546143 15 0.546143C14.6544 0.546143 14.375 0.825221 14.375 1.17048V2.41915H10.625V1.17048C10.625 0.825221 10.345 0.546143 10 0.546143C9.655 0.546143 9.375 0.825221 9.375 1.17048V2.41915H5.625V1.17048C5.625 0.825221 5.345 0.546143 5 0.546143C4.655 0.546143 4.375 0.825221 4.375 1.17048V2.41915H1.66688C0.74625 2.41915 0 3.16399 0 4.08364V18.8598C0 19.7795 0.74625 20.5249 1.66688 20.5249H18.3337C19.2544 20.5249 20 19.7795 20 18.8598V4.08364C20 3.16399 19.2544 2.41915 18.3337 2.41915ZM18.75 18.8598C18.75 19.0896 18.5631 19.2763 18.3337 19.2763H1.66688C1.43687 19.2763 1.25 19.0896 1.25 18.8598V4.08364C1.25 3.85451 1.43687 3.66783 1.66688 3.66783H4.375V4.9165C4.375 5.26176 4.655 5.54084 5 5.54084C5.345 5.54084 5.625 5.26176 5.625 4.9165V3.66783H9.375V4.9165C9.375 5.26176 9.655 5.54084 10 5.54084C10.345 5.54084 10.625 5.26176 10.625 4.9165V3.66783H14.375V4.9165C14.375 5.26176 14.6544 5.54084 15 5.54084C15.3456 5.54084 15.625 5.26176 15.625 4.9165V3.66783H18.3337C18.5631 3.66783 18.75 3.85451 18.75 4.08364V18.8598Z" fill="#26BB8B"/>
<path d="M6.875 8.03818H4.375V9.91119H6.875V8.03818Z" fill="#26BB8B"/>
<path d="M6.875 11.1599H4.375V13.0329H6.875V11.1599Z" fill="#26BB8B"/>
<path d="M6.875 14.2816H4.375V16.1546H6.875V14.2816Z" fill="#26BB8B"/>
<path d="M11.25 14.2816H8.75V16.1546H11.25V14.2816Z" fill="#26BB8B"/>
<path d="M11.25 11.1599H8.75V13.0329H11.25V11.1599Z" fill="#26BB8B"/>
<path d="M11.25 8.03818H8.75V9.91119H11.25V8.03818Z" fill="#26BB8B"/>
<path d="M15.625 14.2816H13.125V16.1546H15.625V14.2816Z" fill="#26BB8B"/>
<path d="M15.625 11.1599H13.125V13.0329H15.625V11.1599Z" fill="#26BB8B"/>
<path d="M15.625 8.03818H13.125V9.91119H15.625V8.03818Z" fill="#26BB8B"/>
</svg>
