<svg width="16" height="18" viewBox="0 0 16 18" fill="none" xmlns="http://www.w3.org/2000/svg">
<path d="M11.2 10.5H8.8V9C8.8 8.17275 8.0824 7.5 7.2 7.5H4.8C3.9176 7.5 3.2 8.17275 3.2 9V13.5C3.2 14.3273 3.9176 15 4.8 15H11.2C12.0824 15 12.8 14.3273 12.8 13.5V12C12.8 11.1727 12.0824 10.5 11.2 10.5ZM7.2 13.5H4.8V12H7.2V13.5ZM7.2 10.5H4.8V9H7.2V10.5ZM11.2 13.5H8.8V12H11.2V13.5ZM14.3592 4.15125L11.572 1.53825C10.5144 0.54675 9.108 0 7.612 0H4C1.7944 0 0 1.68225 0 3.75V14.25C0 16.3177 1.7944 18 4 18H12C14.2056 18 16 16.3177 16 14.25V7.86375C16 6.46125 15.4168 5.14275 14.3592 4.15125ZM13.228 5.21175C13.4824 5.45025 13.6976 5.715 13.8728 6H10.4C9.9584 6 9.6 5.664 9.6 5.25V1.99425C9.904 2.15775 10.1864 2.36025 10.4408 2.59875L13.228 5.21175ZM14.4 14.25C14.4 15.4905 13.3232 16.5 12 16.5H4C2.6768 16.5 1.6 15.4905 1.6 14.25V3.75C1.6 2.5095 2.6768 1.5 4 1.5H7.612C7.7424 1.5 7.872 1.506 8 1.51725V5.25C8 6.4905 9.0768 7.5 10.4 7.5H14.3816C14.3936 7.62 14.4 7.7415 14.4 7.86375V14.25Z" fill="white"/>
</svg>
