<svg width="30" height="30" viewBox="0 0 30 30" fill="none" xmlns="http://www.w3.org/2000/svg">
<path d="M15.0599 2.12479C7.86299 2.12479 2.0293 7.96002 2.0293 15.1554C2.0293 22.3518 7.86299 28.185 15.0599 28.185C22.2563 28.185 28.0905 22.3518 28.0905 15.1554C28.0905 7.95997 22.2563 2.12479 15.0599 2.12479ZM22.5465 17.9276C22.1776 19.1985 21.4809 20.381 20.5042 21.2786C19.5802 22.1317 18.4228 22.7162 17.1996 22.9978C15.8462 23.3058 14.4149 23.314 13.0703 22.9533C12.0047 22.6699 10.9996 22.162 10.1374 21.4744C9.22341 20.748 8.46994 19.8215 7.94443 18.7792C7.13576 17.1824 6.88706 15.3132 7.24387 13.56C7.38574 12.8563 7.62191 12.1722 7.94533 11.5312C8.87443 9.67118 10.5501 8.19952 12.5179 7.52579C14.2642 6.92144 16.2204 6.93498 17.955 7.57342C18.9184 7.92716 19.8002 8.48675 20.5524 9.18281C20.3008 9.45613 20.0278 9.7106 19.768 9.97666C19.2727 10.471 18.779 10.9672 18.2828 11.4606C17.7919 10.9918 17.1926 10.6356 16.5425 10.4382C15.7777 10.2068 14.9539 10.1749 14.1727 10.3417C13.2603 10.5372 12.4135 11.0139 11.7621 11.6807C11.2341 12.2153 10.8321 12.8723 10.5906 13.5836C10.2426 14.5928 10.2451 15.7167 10.589 16.7268C10.9254 17.7198 11.5805 18.6023 12.439 19.2054C12.9759 19.584 13.5913 19.8526 14.236 19.9812C14.87 20.1095 15.5267 20.0957 16.1623 19.9872C16.7938 19.8766 17.4063 19.6439 17.9394 19.2855C18.7875 18.719 19.3855 17.7987 19.5555 16.7924C18.0895 16.7917 16.6232 16.7921 15.1569 16.7924C15.155 15.7426 15.1566 14.6924 15.1562 13.6423C17.6881 13.642 20.22 13.6413 22.7519 13.6425C23.0043 15.0616 22.9488 16.5414 22.5465 17.9276Z" fill="#26BB8B"/>
</svg>
