<svg width="30" height="30" viewBox="0 0 30 30" fill="none" xmlns="http://www.w3.org/2000/svg">
<path d="M14.9999 2.72785C7.80378 2.72785 1.96973 8.5619 1.96973 15.7586C1.96973 22.9563 7.80325 28.7893 14.9999 28.7893C22.1976 28.7893 28.0306 22.9563 28.0306 15.7586C28.0306 8.5619 22.1971 2.72785 14.9999 2.72785ZM10.1057 9.0064C11.2561 8.53597 12.1916 8.34812 12.9727 8.33383C12.978 8.33383 12.9838 8.33383 12.9901 8.33383C13.4479 8.33383 13.8622 8.38781 14.2294 8.47459C14.9973 8.66985 16.1011 9.33237 16.1011 9.33237V9.33554C15.7847 10.4198 14.8486 13.6313 14.5332 14.6986C13.7093 14.1531 12.824 13.6525 11.5751 13.6424C11.5609 13.6424 11.5471 13.6424 11.5328 13.6424C10.7274 13.6424 9.7691 13.853 8.58695 14.3367L10.1057 9.0064ZM9.59024 20.3157C8.79967 20.3157 7.85934 20.5036 6.69465 20.974L8.23505 15.6316C8.41073 15.5591 8.58218 15.495 8.74834 15.4352C9.31032 15.2368 10.1104 15.0114 10.9888 14.9399C11.0888 14.9315 11.1883 14.9267 11.2873 14.9267C12.1636 14.9267 12.9626 15.2336 13.5373 15.5284C13.7823 15.6607 14.0146 15.8041 14.2453 15.948C14.0416 16.6465 12.9669 20.3157 12.6504 21.3862C11.7969 20.82 10.8931 20.3157 9.59024 20.3157ZM19.9254 22.3266C18.649 22.8536 17.6288 23.0637 16.7753 23.0637C15.4254 23.0637 13.6272 21.9535 13.6304 21.9567L15.1661 16.6216C15.6333 16.9957 16.7165 17.7059 18.4972 17.7059C19.3158 17.7059 20.2831 17.5551 21.4065 17.1519L19.9254 22.3266ZM21.8066 15.7358C21.8023 15.7369 21.7992 15.7379 21.797 15.7379C21.797 15.7422 21.797 15.7453 21.797 15.7474C20.7191 16.2549 19.7322 16.4576 18.8454 16.4576C17.5029 16.4576 16.3884 15.9935 15.5328 15.422C15.5275 15.4178 15.5206 15.4146 15.5164 15.4098L17.0726 10.024C17.5658 10.4066 18.6776 11.1247 20.3656 11.1247C21.215 11.1247 22.2071 10.9426 23.3411 10.4489L21.8066 15.7358Z" fill="#26BB8B"/>
</svg>
