<svg width="14" height="20" viewBox="0 0 14 20" fill="none" xmlns="http://www.w3.org/2000/svg">
<path d="M4.66425 9.7519L12.9165 3.05089C13.2459 2.78128 13.4523 2.39546 13.4903 1.97792C13.5284 1.56037 13.3952 1.14514 13.1197 0.823139C12.8443 0.501142 12.4492 0.298627 12.0208 0.25994C11.5925 0.221254 11.1659 0.34955 10.8344 0.616733L1.08402 8.53479C0.901196 8.68364 0.754133 8.86979 0.653218 9.0801C0.552304 9.2904 0.5 9.51973 0.5 9.75189C0.5 9.98405 0.552304 10.2134 0.653218 10.4237C0.754133 10.634 0.901196 10.8201 1.08402 10.969L10.8344 18.887C11.1657 19.1555 11.5929 19.2848 12.022 19.2466C12.4511 19.2084 12.8471 19.0057 13.123 18.6832C13.3988 18.3607 13.5321 17.9446 13.4934 17.5264C13.4547 17.1082 13.2472 16.7221 12.9165 16.4528L4.66425 9.7519Z" fill="white"/>
</svg>
