<svg width="18" height="18" viewBox="0 0 18 18" fill="none" xmlns="http://www.w3.org/2000/svg">
<path d="M7.79102 13.2469C4.78164 13.2469 2.30664 10.8 2.30664 7.76251C2.30664 4.75314 4.75352 2.27814 7.79102 2.27814C10.8285 2.27814 13.2754 4.72501 13.2754 7.76251C13.2473 10.8 10.8004 13.2469 7.79102 13.2469ZM7.79102 3.09376C5.20352 3.09376 3.09414 5.20313 3.09414 7.79063C3.09414 10.3781 5.20352 12.4875 7.79102 12.4875C10.3785 12.4875 12.4879 10.3781 12.4879 7.79063C12.4598 5.20313 10.3504 3.09376 7.79102 3.09376Z" fill="black"/>
<path d="M15.1033 15.6938L11.2783 11.8969L11.8971 11.2781L15.6939 15.1031L15.1033 15.6938Z" fill="black"/>
</svg>
